<svg xmlns="http://www.w3.org/2000/svg" viewBox="0 0 839.91 160.0" width="839.91" height="160.0" fill="none">
  <g>
    <path d="M 10.00 10.00 L 35.28 10.00 L 35.28 150.00 L 10.00 150.00 Z" fill="#0A265C"/>
    <path d="M 26.60 86.01 L 81.05 41.29 L 71.17 29.27 L 16.73 73.99 Z" fill="#0A265C"/>
    <path d="M 16.73 86.01 L 71.17 130.73 L 81.05 118.71 L 26.60 73.99 Z" fill="#0A265C"/>
    <path d="M 49.94 86.01 L 104.38 41.29 L 94.51 29.27 L 40.06 73.99 Z" fill="#1B5FE0"/>
    <path d="M 40.06 86.01 L 94.51 130.73 L 104.38 118.71 L 49.94 73.99 Z" fill="#1B5FE0"/>
    <path d="M 73.27 86.01 L 127.71 41.29 L 117.84 29.27 L 63.40 73.99 Z" fill="#18DCF0"/>
    <path d="M 63.40 86.01 L 117.84 130.73 L 127.71 118.71 L 73.27 73.99 Z" fill="#18DCF0"/>
</g>
  <g>
    <path transform="translate(173.71 132.88) scale(0.15000 -0.15000)" d="M469 0 233 310V0H62V702H233V394L467 702H668L396 358L678 0Z" fill="#0A265C"/>
    <path transform="translate(278.76 132.88) scale(0.15000 -0.15000)" d="M233 740V0H62V740Z" fill="#0A265C"/>
    <path transform="translate(323.51 132.88) scale(0.15000 -0.15000)" d="M46 708Q46 748 74.5 774.5Q103 801 148 801Q192 801 220.5 774.5Q249 748 249 708Q249 669 220.5 642.5Q192 616 148 616Q103 616 74.5 642.5Q46 669 46 708ZM233 558V0H62V558Z" fill="#0A265C"/>
    <path transform="translate(368.26 132.88) scale(0.15000 -0.15000)" d="M403 0 233 234V0H62V740H233V331L402 558H613L381 278L615 0Z" fill="#0A265C"/>
    <path transform="translate(461.46 132.88) scale(0.15000 -0.15000)" d="M403 0 233 234V0H62V740H233V331L402 558H613L381 278L615 0Z" fill="#0A265C"/>
    <path transform="translate(554.66 132.88) scale(0.15000 -0.15000)" d="M567 702V565H381V0H210V565H24V702Z" fill="#1B5FE0"/>
    <path transform="translate(643.81 132.88) scale(0.15000 -0.15000)" d="M585 238H198Q202 186 231.5 158.5Q261 131 304 131Q368 131 393 185H575Q561 130 524.5 86.0Q488 42 433.0 17.0Q378 -8 310 -8Q228 -8 164.0 27.0Q100 62 64.0 127.0Q28 192 28 279Q28 366 63.5 431.0Q99 496 163.0 531.0Q227 566 310 566Q391 566 454.0 532.0Q517 498 552.5 435.0Q588 372 588 288Q588 264 585 238ZM413 333Q413 377 383.0 403.0Q353 429 308 429Q265 429 235.5 404.0Q206 379 199 333Z" fill="#1B5FE0"/>
    <path transform="translate(736.71 132.88) scale(0.15000 -0.15000)" d="M403 0 233 234V0H62V740H233V331L402 558H613L381 278L615 0Z" fill="#1B5FE0"/>
</g>
</svg>
